<?xml version="1.0" encoding="utf-8"?>
<!-- Svg Vector Icons : http://www.onlinewebfonts.com/icon -->
<!DOCTYPE svg PUBLIC "-//W3C//DTD SVG 1.1//EN" "http://www.w3.org/Graphics/SVG/1.1/DTD/svg11.dtd">
<svg version="1.1" xmlns="http://www.w3.org/2000/svg" xmlns:xlink="http://www.w3.org/1999/xlink" x="0px" y="0px" viewBox="0 0 256 256" enable-background="new 0 0 256 256" xml:space="preserve">
<metadata> Svg Vector Icons : http://www.onlinewebfonts.com/icon </metadata>
<g><g><path fill="#000000" d="M128,10C62.8,10,10,62.8,10,128c0,65.2,52.8,118,118,118c65.2,0,118-52.8,118-118C246,62.8,193.2,10,128,10z M128,231.3C71,231.3,24.8,185,24.8,128C24.8,71,71,24.7,128,24.7c57,0,103.3,46.2,103.3,103.3C231.3,185,185,231.3,128,231.3z"/><path fill="#000000" d="M207.3,114.2L143.1,50c-7.8-7.9-18.7-8-26.6,0l-64.2,64.2c-4.8,4.8-4.8,12.5,0,17.3c4.8,4.8,10.4,4.8,15.1,0l45.8-47.9v122.2c0,6.8,8,12.2,14.8,12.2c6.8,0,14.8-5.5,14.8-12.2V83.6l47.6,47.9c4.8,4.8,12.4,4.8,17.2,0C212.3,126.7,212.1,119,207.3,114.2z"/></g></g>
</svg>